<svg width="125" height="125" viewBox="0 0 125 125" fill="none" xmlns="http://www.w3.org/2000/svg">
<path d="M29.0527 31.665C28.125 31.9824 26.0254 33.96 14.6973 45.2637C7.27539 52.6611 1.14746 58.96 0.78125 59.5703C0.219727 60.498 0.12207 60.9375 0.12207 62.5C0.12207 63.7939 0.268555 64.5752 0.585938 65.1855C1.17188 66.3086 26.9287 92.1387 28.2227 92.9199C31.0547 94.6045 34.9854 93.4082 36.6943 90.3809C37.6221 88.6963 37.6953 86.5967 36.8652 84.9609C36.499 84.2041 32.9834 80.5176 25.6836 73.1689L15.0146 62.5L25.6836 51.8066C32.9834 44.4824 36.499 40.7959 36.8652 40.0391C37.6709 38.4277 37.6221 36.3281 36.7188 34.668C35.1807 31.8359 32.1045 30.6152 29.0527 31.665Z" fill="#FC9340"/>
<path d="M91.7236 31.6162C88.3301 32.8613 86.5723 36.9629 88.1103 40.0391C88.501 40.7959 91.9678 44.458 99.3164 51.8066L109.985 62.5L99.3164 73.1689C91.9678 80.542 88.501 84.2041 88.1103 84.9609C87.7197 85.7666 87.5732 86.4746 87.5732 87.5732C87.5977 92.2119 92.8223 95.2637 96.7529 92.9199C98.0713 92.1387 123.828 66.3086 124.414 65.1855C124.731 64.5752 124.878 63.7939 124.878 62.5C124.878 60.9375 124.78 60.498 124.219 59.5703C123.853 58.96 117.725 52.6611 110.303 45.2637C98.3398 33.3496 96.9238 32.0068 95.8496 31.6406C94.4092 31.1768 92.9932 31.1524 91.7236 31.6162Z" fill="#FC9340"/>
<path d="M56.1523 40.9668V44.3603L55.542 44.6289C55.2002 44.7998 54.7607 44.9219 54.5898 44.9219C54.3945 44.9219 53.1982 43.9941 51.9287 42.8467C50.6592 41.6992 49.5117 40.7715 49.3896 40.7715C49.292 40.7715 47.2656 42.7002 44.9219 45.0439L40.6494 49.3164L43.1152 51.8066L45.5811 54.3213L45.0684 55.2246L44.5557 56.1523H41.0889H37.5977V62.5V68.8476H41.2598H44.9219L45.3369 69.7021L45.752 70.581L43.2129 73.1201L40.6494 75.6836L44.9219 79.956C47.2656 82.2998 49.292 84.2285 49.4141 84.2285C49.5117 84.2285 50.6104 83.3252 51.8555 82.2265C53.0762 81.1279 54.2969 80.0293 54.5898 79.7851C55.0537 79.3701 55.1514 79.3701 55.9814 79.7119L56.8848 80.0781V83.7402V87.4023H63.1104H69.3359V83.4228V79.4189L69.9951 79.126C70.6299 78.833 70.7275 78.9062 73.4131 81.5918L76.1719 84.3506L80.5664 79.956L84.9609 75.5615L82.1289 72.7295C79.5654 70.1416 79.3213 69.8486 79.5654 69.3603C79.834 68.8721 80.0293 68.8476 83.6182 68.8476H87.4023V62.5V56.1523H83.7402H80.0781L79.6631 55.2978C79.2725 54.4922 79.2969 54.4433 79.7852 54.0283C80.0537 53.7842 81.3477 52.6611 82.6416 51.5137L84.9609 49.4385L80.5664 45.0439L76.1719 40.6494L73.6328 43.1885C72.2412 44.5801 71.0449 45.6055 70.9473 45.459C70.874 45.3125 70.459 45.1416 70.0684 45.0439L69.3359 44.873V41.2353V37.5976H62.7441H56.1523V40.9668ZM65.0635 56.25C66.4307 56.8603 67.749 58.2275 68.2861 59.5459C68.7744 60.6689 68.7744 63.1103 68.3105 64.209C67.0166 67.2607 63.2812 68.9209 60.498 67.6758C58.9844 67.0166 57.5195 65.625 56.8604 64.2822C56.2012 62.9394 56.1523 60.8642 56.6895 59.5459C57.666 57.2754 60.0586 55.664 62.5 55.664C63.4033 55.664 64.2578 55.8594 65.0635 56.25Z" fill="#FC9340"/>
</svg>
